<svg width="51" height="68" viewBox="0 0 51 68" fill="none" xmlns="http://www.w3.org/2000/svg">
<path fill-rule="evenodd" clip-rule="evenodd" d="M44.7489 38.3882C43.1599 38.3882 41.7232 39.0281 40.688 40.0592L40.6872 40.0581C37.5853 43.112 33.3002 45.0011 28.5671 45.0011C19.1009 45.0011 11.4268 37.4455 11.4268 28.1256C11.4268 18.8055 19.1009 11.2502 28.5671 11.2502C33.3002 11.2502 37.5853 13.1389 40.6872 16.1929L40.6891 16.191C41.7243 17.2216 43.1605 17.8609 44.7489 17.8609C47.9031 17.8609 50.46 15.3433 50.46 12.2379C50.46 10.6739 49.8106 9.26001 48.7638 8.24077L48.7671 8.23781L48.7679 8.23835C43.5981 3.14809 36.4561 0 28.5671 0C12.79 0 0 12.5921 0 28.1256C0 35.8924 3.19751 42.9237 8.36712 48.0135L28.5671 67.9013L48.7671 48.0135L48.7627 48.0091C49.81 46.9899 50.46 45.5757 50.46 44.0112C50.46 40.9055 47.9031 38.3882 44.7489 38.3882Z" fill="#41D5FB"/>
</svg>
